<?xml version="1.0" encoding="UTF-8"?>
<svg viewBox="24.91 19.02 352.35 352.55" xmlns="http://www.w3.org/2000/svg">
<path d="m194.01 19.189c-65.968 2.648-125.28 42.226-152.74 101.92-42.03 91.366-0.165 198.85 92.413 237.25 0.329 0.137 1.339 0.555 2.245 0.93s2.08 0.868 2.609 1.096c5.396 2.322 21.35 6.778 29.726 8.303 22.235 4.046 47.275 3.832 68.414-0.586 98.697-20.627 159.75-118.43 135.13-216.45-18.747-74.617-86.528-129.76-162.67-132.33-2.8-0.095-5.966-0.218-7.036-0.274-1.071-0.056-4.708 9e-3 -8.084 0.144m17.964 15.569c95.256 6.222 164.6 94.979 147.57 188.9-15.998 88.251-100.41 146.58-188.22 130.06-75.891-14.277-131.22-80.999-131.2-158.21 0.024-82.631 62.393-151.86 144.46-160.34 9.401-0.971 17.057-1.086 27.395-0.411m-57.504 20.895c-3.702 1.448-14.887 13.932-24.04 26.832-1.753 2.47-3.508 4.862-3.901 5.314l-0.714 0.824h-15.942c-17.405 0-17.456 4e-3 -19.47 1.728-4.232 3.622-3.402 9.939 1.656 12.611 1.156 0.611 1.573 0.631 13.099 0.631 6.548 0 11.906 0.054 11.906 0.121 0 0.066-1.155 2.525-2.566 5.464-11.292 23.512-17.333 46.155-19.13 71.701-0.245 3.494-0.553 6.459-0.682 6.589-0.13 0.13-9.261 0.274-20.292 0.321-22.231 0.094-21.092-8e-3 -23.182 2.088-3.691 3.703-2.955 9.721 1.495 12.219l1.333 0.748 41.018 0.3 0.075 1.497c1.318 26.311 7.928 51.269 20.316 76.703 1.992 4.091 2.475 5.322 2.165 5.519-0.22 0.139-5.597 0.256-11.948 0.258-13.097 5e-3 -13.748 0.089-15.597 2.017-3.883 4.047-2.895 9.962 2.073 12.409l1.419 0.699 17.051 0.149 17.052 0.15 3.607 4.954c7.922 10.88 19.166 23.68 22.131 25.192 5.105 2.605 10.954-0.942 10.954-6.643 0-2.845-0.611-3.872-5.295-8.906-5.579-5.995-12.356-13.992-12.356-14.58 0-0.092 10.509-0.167 23.353-0.167h23.353l2e-3 12.201c2e-3 13.113 0.046 13.556 1.578 15.842 3.356 5.009 11.542 3.651 13.424-2.227 0.346-1.079 0.535-8.054 0.556-20.501l9e-3 -5.315h23.054c20.02 0 23.054 0.058 23.054 0.438 0 0.757-6.031 7.969-11.493 13.744-5.066 5.357-5.611 6.191-5.803 8.871-0.426 5.957 5.534 9.875 10.925 7.181 1.81-0.904 4.14-3.206 10.448-10.324 3.815-4.304 8.033-9.618 12.182-15.344l3.308-4.566h16.249c10.431 0 16.786-0.115 17.747-0.321 6.771-1.452 7.902-10.868 1.697-14.136-1.166-0.614-1.748-0.651-13.604-0.862-6.812-0.121-12.425-0.26-12.474-0.31-0.049-0.049 1.442-3.247 3.312-7.106 11.082-22.864 17.083-44.901 19.165-70.379 0.263-3.211 0.572-5.935 0.688-6.054s9.303-0.254 20.414-0.3c20.062-0.082 20.211-0.087 21.4-0.73 6.139-3.318 5.128-12.296-1.593-14.163-0.687-0.191-7.241-0.307-17.418-0.309-8.975-2e-3 -17.817-0.09-19.65-0.195l-3.332-0.192-0.204-3.924c-1.304-25.125-7.706-49.57-19.497-74.451-1.225-2.585-2.228-4.851-2.228-5.035 0-0.241 3.249-0.339 11.602-0.348 8.656-0.01 11.875-0.111 12.677-0.398 5.982-2.138 6.552-10.661 0.909-13.582l-1.887-0.977h-15.951c-18.239 0-16.496 0.273-18.61-2.917-7.734-11.67-22.03-28.082-26.073-29.933-4.779-2.188-10.286 1.576-10.265 7.017 0.01 2.496 0.749 3.829 4.069 7.334 7.513 7.932 15.355 17.523 14.912 18.239-0.088 0.143-10.841 0.26-23.945 0.26h-23.785l-0.036-5.165c-0.019-2.84-0.057-8.937-0.083-13.548-0.055-9.577-0.208-10.373-2.418-12.583-3.671-3.67-9.769-2.555-12.325 2.254-0.516 0.971-0.564 2.073-0.646 15.045l-0.088 13.997h-23.921c-13.156 0-23.99-0.112-24.075-0.25-0.38-0.615 7.511-10.269 13.804-16.887 4.491-4.724 5.177-5.886 5.177-8.768 0-5.306-5.097-8.944-9.899-7.065m38.941 89.828v41.888l-2.919 0.22c-3.487 0.262-79.946 5e-3 -80.221-0.27-0.962-0.962 1.982-23.037 4.538-34.026 3.819-16.42 14.759-43.527 19.725-48.877l0.765-0.823h29.056 29.056v41.888m74.057-41.212c4.15 4.15 14.851 29.639 18.737 44.629 3.192 12.312 6.784 37.253 5.544 38.493-0.101 0.101-18.758 0.23-41.46 0.285l-41.277 0.102-0.091-39.623c-0.05-21.792-0.047-40.734 7e-3 -42.092l0.098-2.47h28.883 28.883l0.676 0.676m-74.057 140.6v41.871l-3.368 0.194c-4.367 0.252-25.735 0.251-41.794-2e-3l-12.626-0.198-1.356-2.351c-13.73-23.804-22.799-53.196-23.701-76.818l-0.175-4.566h41.51 41.51v41.87m98.128-37.903c-1.392 23.812-8.753 49.306-20.734 71.816-3.701 6.952-4.179 7.7-5.174 8.096-0.71 0.283-56.571 0.133-56.856-0.152-0.395-0.394-0.191-83.427 0.205-83.535 0.247-0.067 18.976-0.138 41.62-0.157l41.171-0.035-0.232 3.967" fillRule="evenodd" style="--darkreader-inline-fill:#000000;--darkreader-inline-stroke:none" data-darkreader-inline-fill="" data-darkreader-inline-stroke=""/>
</svg>
